<svg width="100" height="100" viewBox="0 0 100 100" fill="none" xmlns="http://www.w3.org/2000/svg">
<g clip-path="url(#clip0_1_2)">
<path d="M0.58401 98.5417L7.49505 73.357C3.22549 65.9689 0.982836 57.588 0.993151 49.0591C1.00441 22.2608 22.8544 0.459214 49.7047 0.459214C62.7343 0.465822 74.9642 5.52668 84.1619 14.7134C93.3596 23.9001 98.4203 36.1112 98.4156 49.098C98.4037 75.8944 76.5505 97.6999 49.7041 97.6999H49.6829C41.5312 97.6966 33.5212 95.6554 26.4062 91.7833L0.58401 98.5417Z" fill="white"/>
<path d="M49.7193 8.66932C27.3867 8.66932 9.22496 26.7897 9.21701 49.0624C9.20601 56.6678 11.3518 64.1211 15.4064 70.5606L16.3697 72.089L12.2789 86.9947L27.6025 82.9845L29.0822 83.8593C35.2968 87.5405 42.4223 89.4871 49.6888 89.4911H49.7041C72.0195 89.4911 90.1812 71.3687 90.1898 49.0947C90.2066 43.7858 89.1682 38.5263 87.1346 33.6207C85.1011 28.715 82.1127 24.2607 78.3426 20.5157C74.5934 16.7501 70.1331 13.7642 65.2199 11.7307C60.3067 9.69731 55.0381 8.65675 49.7193 8.66932Z" fill="url(#paint0_linear_1_2)"/>
<path fill-rule="evenodd" clip-rule="evenodd" d="M37.5298 28.741C36.6175 26.7183 35.6576 26.6774 34.791 26.6423L32.4579 26.6139C31.6463 26.6139 30.3275 26.9179 29.2126 28.1337C28.0977 29.3495 24.9524 32.288 24.9524 38.2647C24.9524 44.2414 29.3139 50.0165 29.9217 50.8279C30.5294 51.6394 38.3415 64.2952 50.713 69.1644C60.9938 73.211 63.0859 72.4061 65.3183 72.2039C67.5507 72.0017 72.5193 69.2655 73.5329 66.4288C74.5465 63.5921 74.5471 61.1618 74.2432 60.6536C73.9394 60.1455 73.1277 59.8435 71.9096 59.2356C70.6914 58.6277 64.7085 55.6893 63.593 55.2835C62.4775 54.8778 61.6665 54.6763 60.8541 55.8921C60.0418 57.1079 57.7121 59.8429 57.0017 60.6536C56.2914 61.4644 55.5823 61.5662 54.3642 60.9589C53.146 60.3517 49.2267 59.0684 44.5766 54.93C40.9585 51.7101 38.5163 47.7336 37.8052 46.5184C37.0942 45.3032 37.7298 44.6451 38.3402 44.0398C38.8863 43.4954 39.557 42.6212 40.1667 41.9121C40.7765 41.2031 40.9771 40.6963 41.3822 39.8869C41.7874 39.0774 41.5855 38.3664 41.2809 37.7592C40.9764 37.1519 38.6116 31.1435 37.5298 28.741Z" fill="white"/>
</g>
<defs>
<linearGradient id="paint0_linear_1_2" x1="48.8792" y1="13.5194" x2="49.2881" y2="82.5867" gradientUnits="userSpaceOnUse">
<stop stop-color="#57A2D1"/>
<stop offset="1" stop-color="#3423B3"/>
</linearGradient>
<clipPath id="clip0_1_2">
<rect width="100" height="100" fill="white"/>
</clipPath>
</defs>
</svg>
