<svg width="100" height="100" viewBox="0 0 100 100" fill="none" xmlns="http://www.w3.org/2000/svg">
<g clip-path="url(#clip0_1_2)">
<path d="M7.40001 91.8463L13.3578 70.1353C9.67715 63.7663 7.74382 56.5414 7.75272 49.1888C7.76242 26.0869 26.5986 7.29243 49.7455 7.29243C60.9779 7.29812 71.5209 11.6609 79.4499 19.5805C87.379 27.5001 91.7416 38.0269 91.7376 49.2225C91.7273 72.3227 72.8883 91.1206 49.7449 91.1206H49.7266C42.6993 91.1177 35.7941 89.3581 29.6605 86.0201L7.40001 91.8463Z" fill="white"/>
<path d="M49.758 14.3701C30.5058 14.3701 14.8491 29.9911 14.8423 49.1917C14.8328 55.7481 16.6826 62.1734 20.178 67.7247L21.0084 69.0422L17.4819 81.892L30.6918 78.4349L31.9674 79.1891C37.3248 82.3625 43.4675 84.0406 49.7318 84.044H49.7449C68.9823 84.044 84.639 68.4213 84.6464 49.2196C84.6609 44.6429 83.7657 40.1089 82.0126 35.8799C80.2595 31.6509 77.6834 27.811 74.4333 24.5825C71.2012 21.3363 67.3561 18.7622 63.1206 17.0093C58.8851 15.2563 54.3432 14.3593 49.758 14.3701Z" fill="url(#paint0_linear_1_2)"/>
<path fill-rule="evenodd" clip-rule="evenodd" d="M39.2498 31.6732C38.4634 29.9296 37.6358 29.8943 36.8888 29.8641L34.8775 29.8396C34.1778 29.8396 33.0409 30.1016 32.0798 31.1497C31.1187 32.1979 28.4072 34.731 28.4072 39.8833C28.4072 45.0357 32.1672 50.0142 32.6911 50.7137C33.215 51.4133 39.9495 62.3234 50.6147 66.521C59.4774 70.0095 61.2809 69.3156 63.2054 69.1413C65.1299 68.967 69.4132 66.6082 70.287 64.1628C71.1607 61.7173 71.1613 59.6222 70.8994 59.1842C70.6374 58.7461 69.9377 58.4858 68.8876 57.9617C67.8374 57.4377 62.6798 54.9045 61.7181 54.5548C60.7564 54.205 60.0573 54.0313 59.357 55.0794C58.6567 56.1275 56.6484 58.4852 56.036 59.1842C55.4236 59.8831 54.8123 59.9708 53.7622 59.4473C52.7121 58.9239 49.3334 57.8176 45.3246 54.25C42.2056 51.4742 40.1002 48.0462 39.4873 46.9986C38.8743 45.9511 39.4222 45.3837 39.9484 44.8619C40.4193 44.3925 40.9974 43.6389 41.523 43.0277C42.0487 42.4165 42.2216 41.9796 42.5709 41.2818C42.9202 40.584 42.7461 39.9711 42.4836 39.4476C42.221 38.9241 40.1824 33.7444 39.2498 31.6732Z" fill="white"/>
</g>
<defs>
<linearGradient id="paint0_linear_1_2" x1="49.0338" y1="18.5512" x2="49.3863" y2="78.092" gradientUnits="userSpaceOnUse">
<stop stop-color="#57A2D1"/>
<stop offset="1" stop-color="#3423B3"/>
</linearGradient>
<clipPath id="clip0_1_2">
<rect width="100" height="100" fill="white"/>
</clipPath>
</defs>
</svg>
